<?xml version="1.0" encoding="UTF-8"?>
<svg xmlns="http://www.w3.org/2000/svg" xmlns:xlink="http://www.w3.org/1999/xlink" width="25pt" height="32pt" viewBox="0 0 25 32" version="1.1">
<g id="surface1">
<path style=" stroke:none;fill-rule:nonzero;fill:rgb(0%,0%,0%);fill-opacity:1;" d="M 11.632812 0.0585938 C 9.578125 0.242188 7.707031 0.839844 6 1.859375 C 2.800781 3.773438 0.605469 7.144531 0.0859375 10.953125 C 0.0117188 11.515625 0 13.074219 0.0664062 13.636719 C 0.421875 16.535156 1.5625 19.230469 3.765625 22.359375 C 4.292969 23.117188 4.835938 23.796875 5.726562 24.828125 C 7.359375 26.71875 9.875 29.460938 11.582031 31.195312 L 12.367188 31.988281 L 12.449219 31.914062 C 12.558594 31.820312 13.804688 30.460938 14.738281 29.417969 C 18.640625 25.054688 21.6875 21.367188 22.898438 19.554688 C 23.523438 18.625 24.246094 16.898438 24.59375 15.523438 C 24.726562 14.984375 24.875 14.21875 24.9375 13.671875 C 25 13.148438 25 11.71875 24.9375 11.195312 C 24.570312 8.160156 23.328125 5.617188 21.199219 3.558594 C 19.199219 1.625 16.859375 0.515625 13.972656 0.128906 C 13.5625 0.0742188 11.988281 0.0273438 11.632812 0.0585938 Z M 13.992188 1.960938 C 16.882812 2.394531 19.363281 3.863281 21.078125 6.160156 C 22.976562 8.703125 23.644531 12.011719 22.867188 15.0625 C 22.207031 17.664062 20.617188 19.898438 18.359375 21.378906 C 17.597656 21.882812 16.492188 22.40625 15.640625 22.660156 C 12.234375 23.6875 8.621094 22.996094 5.828125 20.792969 C 5.335938 20.402344 4.554688 19.625 4.167969 19.140625 C 3.019531 17.699219 2.28125 16.042969 1.972656 14.242188 C 1.726562 12.785156 1.78125 11.34375 2.15625 9.878906 C 3.21875 5.695312 6.722656 2.5625 11.015625 1.964844 C 11.8125 1.851562 11.792969 1.859375 12.671875 1.867188 C 13.238281 1.878906 13.617188 1.90625 13.992188 1.960938 Z M 13.992188 1.960938 "/>
<path style=" stroke:none;fill-rule:nonzero;fill:rgb(0%,0%,0%);fill-opacity:1;" d="M 9.234375 4.59375 C 9.117188 4.664062 8.953125 4.820312 8.890625 4.9375 C 8.863281 4.992188 8.71875 5.398438 8.570312 5.84375 C 8.421875 6.28125 8.265625 6.703125 8.21875 6.78125 C 8.171875 6.855469 8.050781 6.96875 7.960938 7.023438 L 7.785156 7.125 L 6.613281 7.132812 C 5.210938 7.136719 5.132812 7.144531 4.851562 7.265625 C 4.363281 7.484375 4.0625 7.816406 3.863281 8.355469 L 3.753906 8.664062 L 3.753906 16.890625 L 3.859375 17.171875 C 4.070312 17.746094 4.460938 18.140625 4.980469 18.300781 C 5.089844 18.335938 5.199219 18.378906 5.21875 18.394531 C 5.265625 18.433594 19.703125 18.4375 19.753906 18.398438 C 19.773438 18.378906 19.859375 18.34375 19.953125 18.320312 C 20.363281 18.203125 20.78125 17.867188 20.988281 17.476562 C 21.050781 17.359375 21.136719 17.125 21.175781 16.957031 C 21.253906 16.664062 21.253906 16.585938 21.253906 12.765625 C 21.253906 8.492188 21.257812 8.601562 21.027344 8.121094 C 20.824219 7.695312 20.425781 7.347656 19.976562 7.207031 C 19.773438 7.144531 19.632812 7.136719 18.5625 7.140625 C 17.167969 7.144531 17.074219 7.132812 16.84375 6.867188 C 16.71875 6.730469 16.664062 6.582031 16.410156 5.828125 C 16.230469 5.304688 16.070312 4.890625 16.011719 4.8125 C 15.8125 4.535156 16.023438 4.550781 12.476562 4.550781 C 10.238281 4.554688 9.285156 4.566406 9.234375 4.59375 Z M 12.949219 8.007812 C 14.296875 8.128906 15.585938 8.960938 16.273438 10.152344 C 17.5 12.292969 16.71875 15.003906 14.550781 16.15625 C 13.863281 16.515625 13.304688 16.65625 12.523438 16.664062 C 11.300781 16.671875 10.269531 16.25 9.40625 15.394531 C 8.566406 14.550781 8.136719 13.519531 8.136719 12.320312 C 8.136719 11.164062 8.546875 10.15625 9.34375 9.328125 C 9.832031 8.828125 10.285156 8.523438 10.914062 8.277344 C 11.578125 8.019531 12.175781 7.941406 12.949219 8.007812 Z M 19.136719 8.925781 C 19.367188 9.042969 19.476562 9.238281 19.460938 9.5 C 19.417969 10.101562 18.671875 10.28125 18.328125 9.773438 C 18.21875 9.605469 18.21875 9.359375 18.328125 9.15625 C 18.421875 8.992188 18.671875 8.84375 18.859375 8.84375 C 18.921875 8.84375 19.046875 8.882812 19.136719 8.925781 Z M 19.136719 8.925781 "/>
<path style=" stroke:none;fill-rule:nonzero;fill:rgb(0%,0%,0%);fill-opacity:1;" d="M 11.945312 9.789062 C 11.804688 9.820312 11.527344 9.921875 11.332031 10.015625 C 11.039062 10.160156 10.925781 10.246094 10.660156 10.507812 C 10.390625 10.773438 10.3125 10.882812 10.171875 11.175781 C 9.796875 11.949219 9.789062 12.699219 10.164062 13.449219 C 10.484375 14.101562 10.988281 14.550781 11.675781 14.785156 C 12.039062 14.914062 12.644531 14.945312 13.042969 14.859375 C 13.578125 14.75 14.175781 14.382812 14.511719 13.957031 C 14.722656 13.699219 14.949219 13.234375 15.027344 12.910156 C 15.105469 12.601562 15.101562 12.097656 15.027344 11.757812 C 14.714844 10.386719 13.332031 9.5 11.945312 9.789062 Z M 11.945312 9.789062 "/>
</g>
</svg>
