<?xml version="1.0" encoding="UTF-8"?>
<svg xmlns="http://www.w3.org/2000/svg" xmlns:xlink="http://www.w3.org/1999/xlink" width="100pt" height="128pt" viewBox="0 0 100 128" version="1.1">
<g id="surface1">
<path style=" stroke:none;fill-rule:nonzero;fill:rgb(0%,0%,0%);fill-opacity:1;" d="M 46.523438 0.238281 C 38.316406 0.960938 30.828125 3.359375 24.003906 7.445312 C 11.207031 15.097656 2.421875 28.582031 0.34375 43.8125 C 0.0429688 46.0625 0 52.292969 0.265625 54.542969 C 1.679688 66.144531 6.242188 76.921875 15.054688 89.441406 C 17.167969 92.460938 19.335938 95.1875 22.902344 99.316406 C 29.429688 106.878906 39.507812 117.847656 46.328125 124.773438 L 49.464844 127.957031 L 49.792969 127.660156 C 50.238281 127.273438 55.21875 121.84375 58.949219 117.667969 C 74.554688 100.21875 86.757812 85.460938 91.585938 78.222656 C 94.085938 74.492188 96.984375 67.597656 98.378906 62.089844 C 98.914062 59.929688 99.496094 56.878906 99.746094 54.691406 C 100 52.589844 100 46.875 99.746094 44.773438 C 98.289062 32.636719 93.3125 22.46875 84.792969 14.238281 C 76.796875 6.496094 67.433594 2.058594 55.886719 0.519531 C 54.25 0.296875 47.949219 0.105469 46.523438 0.238281 Z M 55.960938 7.84375 C 67.539062 9.578125 77.453125 15.453125 84.320312 24.644531 C 91.914062 34.8125 94.574219 48.042969 91.46875 60.242188 C 88.824219 70.660156 82.460938 79.585938 73.4375 85.519531 C 70.390625 87.535156 65.964844 89.621094 62.558594 90.640625 C 48.929688 94.742188 34.484375 91.988281 23.304688 83.167969 C 21.34375 81.613281 18.222656 78.503906 16.675781 76.566406 C 12.082031 70.792969 9.125 64.175781 7.890625 56.96875 C 6.898438 51.136719 7.132812 45.378906 8.621094 39.519531 C 12.871094 22.777344 26.886719 10.257812 44.070312 7.859375 C 47.25 7.414062 47.175781 7.429688 50.683594 7.472656 C 52.957031 7.519531 54.472656 7.621094 55.960938 7.84375 Z M 55.960938 7.84375 "/>
<path style=" stroke:none;fill-rule:nonzero;fill:rgb(0%,0%,0%);fill-opacity:1;" d="M 36.933594 18.382812 C 36.460938 18.648438 35.804688 19.285156 35.566406 19.746094 C 35.449219 19.964844 34.871094 21.59375 34.289062 23.371094 C 33.695312 25.132812 33.054688 26.820312 32.878906 27.128906 C 32.683594 27.425781 32.207031 27.871094 31.835938 28.09375 L 31.136719 28.492188 L 26.457031 28.523438 C 20.839844 28.550781 20.527344 28.582031 19.398438 29.070312 C 17.449219 29.941406 16.246094 31.261719 15.457031 33.421875 L 15.011719 34.648438 L 15.011719 67.566406 L 15.429688 68.691406 C 16.289062 70.984375 17.851562 72.554688 19.917969 73.207031 C 20.363281 73.339844 20.792969 73.515625 20.867188 73.578125 C 21.0625 73.738281 78.820312 73.753906 79.011719 73.589844 C 79.085938 73.515625 79.445312 73.382812 79.816406 73.28125 C 81.449219 72.820312 83.117188 71.460938 83.949219 69.90625 C 84.199219 69.433594 84.542969 68.5 84.707031 67.832031 C 85.019531 66.648438 85.019531 66.339844 85.019531 51.0625 C 85.019531 33.96875 85.03125 34.414062 84.109375 32.488281 C 83.292969 30.773438 81.703125 29.394531 79.90625 28.832031 C 79.085938 28.582031 78.523438 28.550781 74.242188 28.566406 C 68.667969 28.582031 68.296875 28.523438 67.375 27.472656 C 66.882812 26.921875 66.648438 26.332031 65.636719 23.3125 C 64.921875 21.226562 64.285156 19.566406 64.046875 19.242188 C 63.242188 18.144531 64.089844 18.207031 49.910156 18.207031 C 40.949219 18.21875 37.144531 18.265625 36.933594 18.382812 Z M 51.796875 32.03125 C 57.195312 32.519531 62.335938 35.847656 65.085938 40.613281 C 69.992188 49.167969 66.882812 60.019531 58.203125 64.621094 C 55.453125 66.070312 53.210938 66.632812 50.089844 66.648438 C 45.199219 66.679688 41.082031 64.992188 37.632812 61.574219 C 34.261719 58.199219 32.550781 54.082031 32.550781 49.289062 C 32.550781 44.65625 34.183594 40.628906 37.382812 37.3125 C 39.328125 35.316406 41.140625 34.085938 43.652344 33.109375 C 46.3125 32.074219 48.707031 31.761719 51.796875 32.03125 Z M 76.546875 35.699219 C 77.46875 36.175781 77.914062 36.957031 77.839844 37.996094 C 77.675781 40.40625 74.6875 41.117188 73.320312 39.089844 C 72.875 38.421875 72.875 37.433594 73.320312 36.632812 C 73.691406 35.964844 74.6875 35.375 75.429688 35.375 C 75.683594 35.375 76.1875 35.523438 76.546875 35.699219 Z M 76.546875 35.699219 "/>
<path style=" stroke:none;fill-rule:nonzero;fill:rgb(0%,0%,0%);fill-opacity:1;" d="M 47.785156 39.164062 C 47.21875 39.28125 46.105469 39.695312 45.332031 40.066406 C 44.160156 40.644531 43.699219 40.984375 42.644531 42.035156 C 41.558594 43.101562 41.246094 43.53125 40.679688 44.699219 C 39.179688 47.792969 39.164062 50.796875 40.652344 53.800781 C 41.929688 56.40625 43.949219 58.199219 46.699219 59.144531 C 48.15625 59.648438 50.578125 59.78125 52.171875 59.441406 C 54.308594 58.996094 56.703125 57.53125 58.042969 55.828125 C 58.886719 54.792969 59.792969 52.945312 60.105469 51.640625 C 60.417969 50.398438 60.402344 48.386719 60.105469 47.023438 C 58.859375 41.546875 53.328125 38.007812 47.785156 39.164062 Z M 47.785156 39.164062 "/>
</g>
</svg>
