<?xml version="1.0" encoding="UTF-8"?>
<svg xmlns="http://www.w3.org/2000/svg" xmlns:xlink="http://www.w3.org/1999/xlink" width="10pt" height="12pt" viewBox="0 0 10 12" version="1.1">
<g id="surface1">
<path style=" stroke:none;fill-rule:nonzero;fill:rgb(0%,0%,0%);fill-opacity:1;" d="M 4.652344 0.0234375 C 3.832031 0.0898438 3.082031 0.316406 2.398438 0.699219 C 1.121094 1.414062 0.242188 2.679688 0.0351562 4.109375 C 0.00390625 4.320312 0 4.902344 0.0273438 5.113281 C 0.167969 6.199219 0.625 7.210938 1.503906 8.386719 C 1.71875 8.667969 1.933594 8.921875 2.289062 9.3125 C 2.941406 10.019531 3.949219 11.046875 4.632812 11.699219 L 4.945312 11.996094 L 4.980469 11.96875 C 5.023438 11.933594 5.523438 11.421875 5.894531 11.03125 C 7.457031 9.394531 8.675781 8.011719 9.160156 7.332031 C 9.410156 6.984375 9.699219 6.335938 9.835938 5.820312 C 9.890625 5.617188 9.949219 5.332031 9.976562 5.128906 C 10 4.929688 10 4.394531 9.976562 4.199219 C 9.828125 3.058594 9.332031 2.105469 8.480469 1.335938 C 7.679688 0.609375 6.742188 0.191406 5.589844 0.046875 C 5.425781 0.0273438 4.796875 0.0117188 4.652344 0.0234375 Z M 5.597656 0.734375 C 6.753906 0.898438 7.746094 1.449219 8.433594 2.308594 C 9.191406 3.265625 9.457031 4.503906 9.148438 5.648438 C 8.882812 6.625 8.246094 7.460938 7.34375 8.015625 C 7.039062 8.207031 6.597656 8.402344 6.257812 8.496094 C 4.894531 8.882812 3.449219 8.625 2.332031 7.796875 C 2.132812 7.652344 1.820312 7.359375 1.667969 7.179688 C 1.207031 6.636719 0.914062 6.015625 0.789062 5.339844 C 0.691406 4.792969 0.714844 4.253906 0.863281 3.703125 C 1.289062 2.136719 2.6875 0.960938 4.40625 0.738281 C 4.726562 0.695312 4.71875 0.695312 5.070312 0.699219 C 5.296875 0.703125 5.445312 0.714844 5.597656 0.734375 Z M 5.597656 0.734375 "/>
<path style=" stroke:none;fill-rule:nonzero;fill:rgb(0%,0%,0%);fill-opacity:1;" d="M 3.695312 1.722656 C 3.644531 1.75 3.582031 1.808594 3.554688 1.851562 C 3.546875 1.871094 3.488281 2.023438 3.429688 2.191406 C 3.371094 2.355469 3.304688 2.515625 3.289062 2.542969 C 3.269531 2.570312 3.21875 2.613281 3.183594 2.632812 L 3.113281 2.671875 L 2.644531 2.675781 C 2.085938 2.675781 2.054688 2.679688 1.941406 2.726562 C 1.746094 2.808594 1.625 2.929688 1.546875 3.132812 L 1.5 3.25 L 1.5 6.335938 L 1.542969 6.441406 C 1.628906 6.65625 1.785156 6.800781 1.992188 6.863281 C 2.035156 6.875 2.078125 6.890625 2.085938 6.898438 C 2.105469 6.914062 7.882812 6.914062 7.902344 6.898438 C 7.910156 6.890625 7.945312 6.878906 7.980469 6.871094 C 8.144531 6.828125 8.3125 6.699219 8.394531 6.554688 C 8.421875 6.507812 8.453125 6.421875 8.46875 6.359375 C 8.5 6.25 8.5 6.21875 8.5 4.789062 C 8.5 3.183594 8.503906 3.226562 8.410156 3.046875 C 8.328125 2.886719 8.171875 2.753906 7.992188 2.703125 C 7.910156 2.679688 7.851562 2.675781 7.425781 2.679688 C 6.867188 2.679688 6.828125 2.675781 6.738281 2.574219 C 6.6875 2.523438 6.664062 2.46875 6.5625 2.1875 C 6.492188 1.988281 6.429688 1.835938 6.40625 1.804688 C 6.324219 1.699219 6.410156 1.707031 4.992188 1.707031 C 4.09375 1.707031 3.714844 1.710938 3.695312 1.722656 Z M 5.179688 3.003906 C 5.71875 3.046875 6.234375 3.359375 6.507812 3.808594 C 7 4.609375 6.6875 5.625 5.820312 6.058594 C 5.546875 6.195312 5.320312 6.246094 5.007812 6.25 C 4.519531 6.25 4.109375 6.09375 3.761719 5.773438 C 3.425781 5.457031 3.253906 5.070312 3.253906 4.621094 C 3.253906 4.1875 3.417969 3.808594 3.738281 3.5 C 3.933594 3.3125 4.113281 3.195312 4.367188 3.105469 C 4.632812 3.007812 4.871094 2.976562 5.179688 3.003906 Z M 7.65625 3.347656 C 7.746094 3.390625 7.792969 3.464844 7.785156 3.5625 C 7.765625 3.789062 7.46875 3.855469 7.332031 3.664062 C 7.289062 3.601562 7.289062 3.507812 7.332031 3.433594 C 7.367188 3.371094 7.46875 3.316406 7.542969 3.316406 C 7.570312 3.316406 7.617188 3.332031 7.65625 3.347656 Z M 7.65625 3.347656 "/>
<path style=" stroke:none;fill-rule:nonzero;fill:rgb(0%,0%,0%);fill-opacity:1;" d="M 4.777344 3.671875 C 4.722656 3.683594 4.609375 3.722656 4.53125 3.757812 C 4.414062 3.808594 4.371094 3.84375 4.265625 3.941406 C 4.15625 4.039062 4.125 4.082031 4.066406 4.191406 C 3.917969 4.480469 3.917969 4.761719 4.066406 5.042969 C 4.191406 5.289062 4.394531 5.457031 4.671875 5.542969 C 4.816406 5.59375 5.058594 5.605469 5.21875 5.574219 C 5.429688 5.53125 5.671875 5.394531 5.804688 5.234375 C 5.890625 5.136719 5.980469 4.964844 6.011719 4.839844 C 6.042969 4.726562 6.039062 4.535156 6.011719 4.410156 C 5.886719 3.894531 5.332031 3.5625 4.777344 3.671875 Z M 4.777344 3.671875 "/>
</g>
</svg>
